<svg width="840" height="894" viewBox="92 0 840 894" fill="none" xmlns="http://www.w3.org/2000/svg">
  <path d="M727.954 0H295.985C183.327 0 92 91.3273 92 203.985V689.95C92 802.608 183.327 893.936 295.985 893.936H727.954C840.612 893.936 931.94 802.608 931.94 689.95V203.985C931.94 91.3273 840.612 0 727.954 0Z" fill="#F5F8F7"/>
  <path d="M322 555C383 555 395 437 461 437C518 437 526 511 578 511C638 511 645 333 702 333" stroke="#4A938B" stroke-width="76" stroke-linecap="round" stroke-linejoin="round"/>
  <path d="M322 590C341.33 590 357 574.33 357 555C357 535.67 341.33 520 322 520C302.67 520 287 535.67 287 555C287 574.33 302.67 590 322 590Z" fill="#4A938B"/>
  <path d="M322 568C329.18 568 335 562.18 335 555C335 547.82 329.18 542 322 542C314.82 542 309 547.82 309 555C309 562.18 314.82 568 322 568Z" fill="#293330"/>
  <path d="M578 546C597.33 546 613 530.33 613 511C613 491.67 597.33 476 578 476C558.67 476 543 491.67 543 511C543 530.33 558.67 546 578 546Z" fill="#4A938B"/>
  <path d="M578 524C585.18 524 591 518.18 591 511C591 503.82 585.18 498 578 498C570.82 498 565 503.82 565 511C565 518.18 570.82 524 578 524Z" fill="#293330"/>
  <path d="M702 368C721.33 368 737 352.33 737 333C737 313.67 721.33 298 702 298C682.67 298 667 313.67 667 333C667 352.33 682.67 368 702 368Z" fill="#4A938B"/>
  <path d="M702 346C709.18 346 715 340.18 715 333C715 325.82 709.18 320 702 320C694.82 320 689 325.82 689 333C689 340.18 694.82 346 702 346Z" fill="#293330"/>
</svg>
